{"title":"Cherrybomb.2009.BRRip.H264.FEEL-FREE","uid":5694795,"size":1146234881,"categoryP":"other","categoryS":"other","magnet":"?xt=urn:btih:216e67475e85d216163b85fd548c22f791bc476a&amp;dn=Cherrybomb.2009.BRRip.H264.FEEL-FREE&amp;tr=udp%3A%2F%2Ftracker.openbittorrent.com%3A80&amp;tr=udp%3A%2F%2Fopen.demonii.com%3A1337&amp;tr=udp%3A%2F%2Ftracker.coppersurfer.tk%3A6969&amp;tr=udp%3A%2F%2Fexodus.desync.com%3A6969","seeders":0,"leechers":1,"uploader":"hiest","files":6,"time":1279269175,"description":"Genre:Drama | Thriller \nLanguage:English\nIMDb:http://www.imdb.com/title/tt1248971/\nSource:BluRay.x264-BestHD\nEncoder: Tony2\n................................................\nGeneral\nComplete name : Cherrybomb.2009.BRRip.H264.FEEL-FREE\nFormat : MPEG-4\nFormat profile : Base Media\nCodec ID : isom\nFile size : 1.07 GiB\nDuration : 1h 25mn\nOverall bit rate : 1 776 Kbps\n.................................................\nVideo\nID : 1\nFormat : AVC\nFormat/Info : Advanced Video Codec\nFormat profile : &lt;a class=&quot;__cf_email__&quot; href=&quot;/cdn-cgi/l/email-protection&quot; data-cfemail=&quot;afedcedccac3c6c1caefe39a819e&quot;&gt;[email&amp;#160;protected]&lt;/a&gt;&lt;script cf-hash='f9e31' type=&quot;text/javascript&quot;&gt;\n/* &lt;![CDATA[ */!function(){try{var t=&quot;currentScript&quot;in document?document.currentScript:function(){for(var t=document.getElementsByTagName(&quot;script&quot;),e=t.length;e--;)if(t[e].getAttribute(&quot;cf-hash&quot;))return t[e]}();if(t&amp;&amp;t.previousSibling){var e,r,n,i,c=t.previousSibling,a=c.getAttribute(&quot;data-cfemail&quot;);if(a){for(e=&quot;&quot;,r=parseInt(a.substr(0,2),16),n=2;a.length-n;n+=2)i=parseInt(a.substr(n,2),16)^r,e+=String.fromCharCode(i);e=document.createTextNode(e),c.parentNode.replaceChild(e,c)}}}catch(u){}}();/* ]]&gt; */&lt;/script&gt;\nFormat settings, CABAC : No\nFormat settings, ReFrames : 1 frame\nCodec ID : avc1\nCodec ID/Info : Advanced Video Coding\nDuration : 1h 25mn\nBit rate mode : Variable\nBit rate : 1 538 Kbps\nWidth : 684 pixels\nHeight : 320 pixels\nDisplay aspect ratio : 2.2:1\nFrame rate mode : Constant\nFrame rate : 23.976 fps\nResolution : 24 bits\nColorimetry : 4:2:0\nScan type : Progressive\nBits/(Pixel*Frame) : 0.293\nStream size : 946 MiB (87%)\n..................................................\n\nAudio\nID : 2\nFormat : AAC\nFormat/Info : Advanced Audio Codec\nFormat version : Version 4\nFormat profile : LC\nFormat settings, SBR : No\nCodec ID : 40\nDuration : 1h 25mn\nBit rate mode : Variable\nBit rate : 233 Kbps\nChannel(s) : 6 channels\nChannel positions : Front: L C R, Rear: L R, LFE\nSampling rate : 48.0 KHz\nResolution : 16 bits\nStream size : 144 MiB (13%)\n..................................................\nPlot:\nThree teenagers go on a wild weekend of drink, drugs, shop-lifting and stealing cars that quickly spins beyond their control.\n...................................................","torrent":{"xt":"urn:btih:216e67475e85d216163b85fd548c22f791bc476a","amp;dn":"Cherrybomb.2009.BRRip.H264.FEEL-FREE","amp;tr":["udp%3A%2F%2Ftracker.openbittorrent.com%3A80","udp%3A%2F%2Fopen.demonii.com%3A1337","udp%3A%2F%2Ftracker.coppersurfer.tk%3A6969","udp%3A%2F%2Fexodus.desync.com%3A6969"],"infoHash":"216e67475e85d216163b85fd548c22f791bc476a","infoHashBuffer":{"type":"Buffer","data":[33,110,103,71,94,133,210,22,22,59,133,253,84,140,34,247,145,188,71,106]},"announce":[],"urlList":[]}}